<?xml version="1.0" encoding="UTF-8"?>
<svg id="Lager_1" data-name="Lager 1" xmlns="http://www.w3.org/2000/svg" viewBox="0 0 250 78">
  <defs>
    <style>
      .cls-1 {
        fill: #fff;
      }
    </style>
  </defs>
  <path class="cls-1" d="m40.48,20.2c-.43.55-.85.97-1.26,1.24-.41.28-.9.41-1.48.41s-1.1-.18-1.66-.54c-.55-.36-1.17-.76-1.85-1.19-.68-.43-1.47-.83-2.36-1.19-.89-.36-1.93-.54-3.13-.54-1.1,0-2.07.16-2.9.47-.83.31-1.52.74-2.07,1.3-.55.55-.97,1.2-1.24,1.94-.28.74-.41,1.56-.41,2.45,0,.96.27,1.76.81,2.41s1.26,1.22,2.16,1.71c.9.49,1.91.94,3.04,1.35,1.13.41,2.29.85,3.47,1.33s2.35,1.03,3.49,1.66c1.14.62,2.16,1.4,3.06,2.34s1.62,2.06,2.16,3.38c.54,1.32.81,2.9.81,4.75,0,2.64-.46,5.12-1.37,7.45-.91,2.33-2.22,4.36-3.92,6.1-1.7,1.74-3.77,3.12-6.21,4.14-2.44,1.02-5.18,1.53-8.23,1.53-1.51,0-3.03-.17-4.55-.5-1.52-.34-2.99-.81-4.39-1.42-1.4-.61-2.71-1.34-3.91-2.18-1.2-.84-2.22-1.78-3.06-2.81l4.18-5.47c.34-.41.75-.74,1.24-1.01.49-.26.99-.4,1.49-.4.67,0,1.33.23,1.96.7.64.47,1.34.98,2.11,1.55.77.56,1.66,1.08,2.68,1.55,1.02.47,2.27.7,3.76.7,2.18,0,3.87-.59,5.06-1.78s1.78-2.95,1.78-5.27c0-1.08-.27-1.97-.81-2.66-.54-.7-1.25-1.28-2.12-1.76-.88-.48-1.88-.91-3.01-1.28-1.13-.37-2.28-.77-3.46-1.21-1.18-.43-2.33-.94-3.46-1.53-1.13-.59-2.13-1.36-3.01-2.3-.88-.95-1.58-2.11-2.12-3.49-.54-1.38-.81-3.08-.81-5.09,0-2.33.44-4.57,1.31-6.71.88-2.15,2.13-4.05,3.76-5.71,1.63-1.66,3.61-2.98,5.94-3.96,2.33-.98,4.94-1.48,7.85-1.48,1.49,0,2.93.16,4.34.47,1.4.31,2.72.74,3.94,1.3,1.22.55,2.34,1.21,3.35,1.96,1.01.76,1.86,1.58,2.56,2.47l-3.53,4.82Z"/>
  <path class="cls-1" d="m44.01,62.14l4.54-37.33h5.76c1.15,0,2.05.27,2.7.81.65.54.97,1.42.97,2.65v2.2c1.58-2.11,3.25-3.68,5-4.7,1.75-1.02,3.59-1.53,5.51-1.53,2.11,0,3.86.68,5.26,2.05,1.39,1.37,2.28,3.36,2.66,5.98,1.66-2.76,3.47-4.79,5.44-6.08,1.97-1.3,4.19-1.94,6.66-1.94,1.56,0,2.96.31,4.21.94,1.25.62,2.28,1.54,3.1,2.74s1.39,2.68,1.71,4.45c.32,1.76.34,3.79.05,6.07l-2.81,23.72h-11.02l2.81-23.72c.12-1.01.16-1.86.13-2.56-.04-.7-.14-1.25-.32-1.66-.18-.41-.44-.7-.77-.88-.34-.18-.73-.27-1.19-.27-.74,0-1.46.2-2.14.59s-1.33.97-1.94,1.73c-.61.76-1.17,1.67-1.67,2.74s-.95,2.26-1.33,3.58l-2.41,20.45h-11.02l2.81-23.72c.12-1.01.16-1.86.13-2.56-.04-.7-.14-1.25-.32-1.66-.18-.41-.44-.7-.77-.88-.34-.18-.73-.27-1.19-.27-.74,0-1.46.2-2.16.61-.7.41-1.35,1-1.96,1.76-.61.77-1.17,1.7-1.67,2.79-.5,1.09-.95,2.31-1.33,3.65l-2.45,20.27h-10.94Z"/>
  <path class="cls-1" d="m117.31,24.81l-4.46,37.33h-11.02l4.46-37.33h11.02Zm2.09-10.22c0,.89-.19,1.72-.58,2.5-.38.78-.89,1.46-1.51,2.05-.62.59-1.34,1.06-2.14,1.4-.8.35-1.63.52-2.47.52s-1.64-.17-2.41-.52c-.77-.35-1.45-.82-2.03-1.4-.59-.59-1.06-1.27-1.42-2.05-.36-.78-.54-1.61-.54-2.5s.18-1.73.54-2.52c.36-.79.85-1.49,1.46-2.09.61-.6,1.3-1.07,2.07-1.42.77-.35,1.57-.52,2.41-.52s1.69.17,2.48.5c.79.34,1.49.8,2.11,1.4.61.6,1.1,1.3,1.48,2.09.37.79.56,1.64.56,2.56Z"/>
  <path class="cls-1" d="m159.28,8.25l-6.7,53.89h-5.98c-.7,0-1.28-.09-1.75-.27s-.84-.43-1.12-.74-.47-.68-.58-1.12-.16-.9-.16-1.4v-3.13c-1.7,2.26-3.59,4.03-5.65,5.31-2.06,1.28-4.26,1.93-6.59,1.93-1.54,0-2.94-.27-4.21-.81s-2.37-1.39-3.29-2.54c-.92-1.15-1.64-2.62-2.16-4.41-.52-1.79-.77-3.93-.77-6.43,0-2.16.23-4.27.68-6.32.46-2.05,1.09-3.98,1.91-5.78.82-1.8,1.79-3.45,2.92-4.95,1.13-1.5,2.37-2.78,3.73-3.85,1.36-1.07,2.79-1.9,4.3-2.5,1.51-.6,3.07-.9,4.68-.9s2.95.25,4.18.76,2.3,1.19,3.24,2.05l2.38-18.79h10.94Zm-14.18,25.74c-.7-.58-1.47-.98-2.32-1.21-.85-.23-1.66-.34-2.43-.34-1.3,0-2.49.43-3.58,1.3-1.09.86-2.03,2-2.83,3.4s-1.41,3.01-1.85,4.81c-.44,1.8-.67,3.64-.67,5.51,0,2.38.35,4.1,1.04,5.17.7,1.07,1.62,1.6,2.77,1.6.77,0,1.57-.29,2.39-.86.83-.58,1.63-1.37,2.41-2.38.78-1.01,1.51-2.19,2.2-3.55.68-1.36,1.27-2.81,1.75-4.37l1.12-9.07Z"/>
  <path class="cls-1" d="m175.52,24.81l-4.46,37.33h-11.02l4.46-37.33h11.02Zm2.09-10.22c0,.89-.19,1.72-.58,2.5-.38.78-.89,1.46-1.51,2.05-.62.59-1.34,1.06-2.14,1.4-.8.35-1.63.52-2.47.52s-1.64-.17-2.41-.52c-.77-.35-1.45-.82-2.03-1.4-.59-.59-1.06-1.27-1.42-2.05-.36-.78-.54-1.61-.54-2.5s.18-1.73.54-2.52c.36-.79.85-1.49,1.46-2.09.61-.6,1.3-1.07,2.07-1.42.77-.35,1.57-.52,2.41-.52s1.69.17,2.48.5c.79.34,1.49.8,2.11,1.4.61.6,1.1,1.3,1.48,2.09.37.79.56,1.64.56,2.56Z"/>
  <path class="cls-1" d="m215.69,26.18l-.5,3.49c-.22,1.37-.91,2.29-2.09,2.77l-3.17,1.08c.14.77.22,1.58.22,2.45,0,1.54-.21,2.84-.63,3.92s-.88,2.1-1.39,3.06c-.5.96-.97,1.94-1.39,2.95-.42,1.01-.63,2.2-.63,3.56,0,.98.16,1.89.49,2.72.32.83.68,1.67,1.06,2.54.38.86.74,1.78,1.06,2.74.32.96.49,2.06.49,3.31-.02,1.92-.46,3.74-1.3,5.45-.84,1.72-2.05,3.22-3.64,4.5-1.58,1.28-3.53,2.3-5.83,3.06s-4.93,1.13-7.88,1.13c-2.42,0-4.6-.25-6.52-.76-1.92-.5-3.55-1.19-4.88-2.05-1.33-.86-2.36-1.89-3.08-3.08-.72-1.19-1.08-2.47-1.08-3.83,0-1.8.4-3.35,1.19-4.64s1.84-2.37,3.13-3.22c1.3-.85,2.77-1.51,4.43-1.98,1.66-.47,3.35-.79,5.08-.97,1.73-.18,3.41-.23,5.04-.14,1.63.08,3.08.25,4.36.49-.07-.58-.11-1.18-.11-1.8,0-1.32.32-2.77.97-4.36-.91.62-1.98,1.12-3.2,1.48-1.22.36-2.74.54-4.54.54-1.42,0-2.77-.23-4.07-.7-1.3-.47-2.44-1.18-3.44-2.14-1-.96-1.79-2.17-2.39-3.62-.6-1.45-.9-3.17-.9-5.17,0-1.85.35-3.65,1.06-5.42.71-1.76,1.76-3.34,3.17-4.72,1.4-1.38,3.14-2.49,5.22-3.33,2.08-.84,4.49-1.26,7.25-1.26,1.44,0,2.81.16,4.1.49,1.3.32,2.5.81,3.6,1.46h10.73Zm-24.19,41.36c1.1,0,2.12-.14,3.06-.43.94-.29,1.73-.69,2.39-1.21.66-.52,1.18-1.13,1.55-1.85.37-.72.56-1.52.56-2.41v-.43c0-.14-.01-.28-.04-.4-2.45-.41-4.53-.6-6.25-.58-1.72.02-3.1.2-4.16.52-1.06.32-1.82.76-2.3,1.3-.48.54-.72,1.13-.72,1.78,0,1.22.45,2.15,1.35,2.77s2.42.94,4.55.94Zm3.1-23.44c.89,0,1.66-.23,2.32-.68.66-.46,1.21-1.05,1.64-1.78.43-.73.76-1.55.99-2.47.23-.91.35-1.84.38-2.77,0-1.56-.32-2.77-.97-3.64-.65-.86-1.64-1.3-2.99-1.3-.89,0-1.66.21-2.32.63-.66.42-1.21.98-1.64,1.67-.43.7-.76,1.5-.97,2.41-.22.91-.32,1.86-.32,2.84,0,1.58.32,2.83.97,3.73.65.9,1.62,1.35,2.92,1.35Z"/>
  <path class="cls-1" d="m219.08,54.08v-.61c0-.24.02-.58.05-1.03.04-.44.1-1.03.18-1.76.08-.73.2-1.7.34-2.9l1.91-15.26h-2.99c-.5,0-.92-.19-1.26-.56-.34-.37-.44-.92-.32-1.64l.5-4.36,5.65-1.15,3.13-9.11c.41-1.15,1.22-1.73,2.45-1.73h6.05l-1.37,10.91h8.35l-.94,7.63h-8.35l-1.8,14.65c-.12.98-.22,1.76-.29,2.32s-.13,1-.16,1.3c-.04.3-.05.5-.05.61v.2c0,.7.16,1.28.49,1.75.32.47.83.7,1.53.7.38,0,.7-.04.95-.13.25-.08.47-.18.67-.29.19-.11.37-.2.54-.29.17-.08.36-.13.58-.13.34,0,.58.08.74.23.16.16.32.4.49.74l2.45,5.29c-1.49,1.08-3.08,1.89-4.79,2.43s-3.42.81-5.15.81c-1.44,0-2.74-.2-3.89-.59-1.15-.4-2.14-.97-2.97-1.73s-1.48-1.66-1.94-2.72c-.47-1.06-.73-2.26-.77-3.6Z"/>
</svg>